<mxfile modified="2023-04-13T13:04:11.214Z" host="app.diagrams.net" agent="Mozilla/5.0 (Macintosh; Intel Mac OS X 10_15_7) AppleWebKit/537.36 (KHTML, like Gecko) Chrome/111.0.0.0 Safari/537.36" etag="OXIpXhatl5sKr6fp6DST" version="21.1.7" type="github">
  <diagram id="7gcUSTIZ7YSJ5vT40chW" name="Page-1">
    <mxGraphModel dx="1468" dy="958" grid="1" gridSize="10" guides="1" tooltips="1" connect="1" arrows="1" fold="1" page="1" pageScale="1" pageWidth="1169" pageHeight="827" math="0" shadow="0">
      <root>
        <mxCell id="0" />
        <mxCell id="1" parent="0" />
        <mxCell id="WdDqWn3QPyNmwABSqC7a-3" style="edgeStyle=orthogonalEdgeStyle;rounded=0;orthogonalLoop=1;jettySize=auto;html=1;exitX=0.5;exitY=1;exitDx=0;exitDy=0;entryX=0.5;entryY=0;entryDx=0;entryDy=0;entryPerimeter=0;" edge="1" parent="1" source="WdDqWn3QPyNmwABSqC7a-1" target="WdDqWn3QPyNmwABSqC7a-2">
          <mxGeometry relative="1" as="geometry" />
        </mxCell>
        <mxCell id="WdDqWn3QPyNmwABSqC7a-8" style="edgeStyle=orthogonalEdgeStyle;rounded=0;orthogonalLoop=1;jettySize=auto;html=1;exitX=0;exitY=0.5;exitDx=0;exitDy=0;" edge="1" parent="1" source="WdDqWn3QPyNmwABSqC7a-1" target="WdDqWn3QPyNmwABSqC7a-7">
          <mxGeometry relative="1" as="geometry" />
        </mxCell>
        <mxCell id="WdDqWn3QPyNmwABSqC7a-1" value="安卓、IOS、Web等" style="rounded=1;whiteSpace=wrap;html=1;" vertex="1" parent="1">
          <mxGeometry x="480" y="50" width="120" height="60" as="geometry" />
        </mxCell>
        <mxCell id="WdDqWn3QPyNmwABSqC7a-2" value="" style="verticalLabelPosition=bottom;html=1;verticalAlign=top;align=center;strokeColor=none;fillColor=#00BEF2;shape=mxgraph.azure.azure_load_balancer;" vertex="1" parent="1">
          <mxGeometry x="515" y="170" width="50" height="35" as="geometry" />
        </mxCell>
        <mxCell id="WdDqWn3QPyNmwABSqC7a-5" value="负载均衡" style="text;html=1;strokeColor=none;fillColor=none;align=center;verticalAlign=middle;whiteSpace=wrap;rounded=0;" vertex="1" parent="1">
          <mxGeometry x="565" y="176" width="60" height="30" as="geometry" />
        </mxCell>
        <mxCell id="WdDqWn3QPyNmwABSqC7a-6" value="各类用户" style="text;html=1;strokeColor=none;fillColor=none;align=center;verticalAlign=middle;whiteSpace=wrap;rounded=0;" vertex="1" parent="1">
          <mxGeometry x="600" y="65" width="60" height="30" as="geometry" />
        </mxCell>
        <mxCell id="WdDqWn3QPyNmwABSqC7a-7" value="" style="image;sketch=0;aspect=fixed;html=1;points=[];align=center;fontSize=12;image=img/lib/mscae/DNS.svg;" vertex="1" parent="1">
          <mxGeometry x="350" y="55" width="50" height="50" as="geometry" />
        </mxCell>
      </root>
    </mxGraphModel>
  </diagram>
</mxfile>
